<?xml version="1.0" encoding="utf-8"?>
<!-- Generator: Adobe Illustrator 21.1.0, SVG Export Plug-In . SVG Version: 6.00 Build 0)  -->
<svg version="1.1" id="Calque_1" xmlns="http://www.w3.org/2000/svg" xmlns:xlink="http://www.w3.org/1999/xlink" x="0px" y="0px"
	 viewBox="0 0 1366 768" style="enable-background:new 0 0 1366 768;" xml:space="preserve">
<style type="text/css">
	.st0{fill:url(#SVGID_1_);stroke:#000000;stroke-width:6;stroke-miterlimit:10;}
	.st1{fill:#FFFFFF;}
	.st2{font-family:'ArialMT';}
	.st3{font-size:81.84px;}
	.st4{fill:url(#SVGID_2_);stroke:#000000;stroke-width:6;stroke-miterlimit:10;}
	.st5{fill:#FFFFFF;stroke:#000000;stroke-width:6;stroke-miterlimit:10;}
	.st6{fill:#FFFFFF;stroke:#000000;stroke-width:5.28;stroke-miterlimit:10;}
	.st7{fill:#FFFFFF;stroke:#000000;stroke-width:6.02;stroke-miterlimit:10;}
	.st8{fill:url(#SVGID_3_);stroke:#000000;stroke-width:5.37;stroke-miterlimit:10;}
	.st9{fill:#FFFFFF;stroke:#000000;stroke-width:6.19;stroke-miterlimit:10;}
	.st10{fill:url(#SVGID_4_);stroke:#000000;stroke-width:6;stroke-miterlimit:10;}
	.st11{fill:url(#SVGID_5_);stroke:#000000;stroke-width:6;stroke-miterlimit:10;}
	.st12{fill:url(#SVGID_6_);stroke:#000000;stroke-width:6;stroke-miterlimit:10;}
	.st13{fill:url(#SVGID_7_);stroke:#000000;stroke-width:6;stroke-miterlimit:10;}
	.st14{fill:url(#SVGID_8_);stroke:#000000;stroke-width:6;stroke-miterlimit:10;}
	.st15{fill:url(#SVGID_9_);stroke:#000000;stroke-width:6;stroke-miterlimit:10;}
	.st16{fill:url(#SVGID_10_);stroke:#000000;stroke-width:6;stroke-miterlimit:10;}
	.st17{fill:url(#SVGID_11_);stroke:#000000;stroke-width:6;stroke-miterlimit:10;}
	.st18{fill:url(#SVGID_12_);stroke:#000000;stroke-width:6;stroke-miterlimit:10;}
	.st19{fill:url(#SVGID_13_);stroke:#000000;stroke-width:6;stroke-miterlimit:10;}
	.st20{fill:url(#SVGID_14_);stroke:#000000;stroke-width:6;stroke-miterlimit:10;}
	.st21{fill:url(#SVGID_15_);stroke:#000000;stroke-width:6;stroke-miterlimit:10;}
	.st22{fill:url(#SVGID_16_);stroke:#000000;stroke-width:6;stroke-miterlimit:10;}
	.st23{fill:url(#SVGID_17_);stroke:#000000;stroke-width:6;stroke-miterlimit:10;}
</style>
<title>Plan de travail 1</title>
<g id="Calque_6">
	
		<linearGradient id="SVGID_1_" gradientUnits="userSpaceOnUse" x1="683.5" y1="-2769.6301" x2="683.5" y2="-2125.0701" gradientTransform="matrix(1 0 0 -1 0 -2090.1104)">
		<stop  offset="0" style="stop-color:#FFFFFF"/>
		<stop  offset="0.9988" style="stop-color:#00FFA2"/>
	</linearGradient>
	<rect x="27" y="27" class="st0" width="1313" height="715"/>
</g>
<g id="Calque_1_1_">
	<rect x="27" y="27.1" class="st1" width="359" height="88"/>
	<path d="M383,30.1v82H30v-82L383,30.1 M389,24.1H24v94h365V24.1z"/>
	<text transform="matrix(0.8065 0 0 1 36.4355 93.3695)" class="st2 st3">zen ga</text>
	<text transform="matrix(0.8065 0 0 1 237.0757 93.3695)" class="st2 st3">r</text>
	<text transform="matrix(0.8065 0 0 1 259.8457 93.3695)" class="st2 st3">den</text>
</g>
<g id="_1er_plan">
	
		<linearGradient id="SVGID_2_" gradientUnits="userSpaceOnUse" x1="308.75" y1="-2820.8604" x2="455.25" y2="-2674.3604" gradientTransform="matrix(1 0 0 -1 0 -2090.1104)">
		<stop  offset="0" style="stop-color:#FFFFFF"/>
		<stop  offset="1" style="stop-color:#5100FF"/>
	</linearGradient>
	<rect x="319.5" y="573.5" class="st4" width="125" height="168"/>
	<rect x="1280" y="376" class="st5" width="32" height="170"/>
	<rect x="28.5" y="517.5" class="st6" width="299.5" height="224"/>
	<polygon class="st5" points="722.4,388.2 717.4,743.5 422.7,740.2 422.7,596.6 312.2,594.9 312.2,378.9 311,352 512,151 721,355 	
		"/>
	<path class="st7" d="M1174.6,262.5l4,177l161.4,2v301H813.5v-480L985,92C985,92,1177.5,259.6,1174.6,262.5z"/>
	
		<linearGradient id="SVGID_3_" gradientUnits="userSpaceOnUse" x1="639.5" y1="494.89" x2="639.5" y2="634.89" gradientTransform="matrix(1 0 0 -1 0 767.89)">
		<stop  offset="0" style="stop-color:#FFFFFF"/>
		<stop  offset="0.9988" style="stop-color:#5100FF"/>
	</linearGradient>
	<rect x="619" y="133" class="st8" width="41" height="140"/>
	<rect x="28" y="436" class="st9" width="285" height="81"/>
	
		<linearGradient id="SVGID_4_" gradientUnits="userSpaceOnUse" x1="55.5" y1="-2784.6104" x2="185.5" y2="-2654.6104" gradientTransform="matrix(1 0 0 -1 0 -2090.1104)">
		<stop  offset="0" style="stop-color:#FFFFFF"/>
		<stop  offset="1" style="stop-color:#5100FF"/>
	</linearGradient>
	<rect x="80" y="540" class="st10" width="81" height="179"/>
	
		<linearGradient id="SVGID_5_" gradientUnits="userSpaceOnUse" x1="199.25" y1="-2711.3604" x2="279.75" y2="-2630.8604" gradientTransform="matrix(1 0 0 -1 0 -2090.1104)">
		<stop  offset="0" style="stop-color:#FFFFFF"/>
		<stop  offset="1" style="stop-color:#5100FF"/>
	</linearGradient>
	<rect x="199" y="541" class="st11" width="81" height="80"/>
</g>
<g id="Calque_5">
	
		<linearGradient id="SVGID_6_" gradientUnits="userSpaceOnUse" x1="993.05" y1="438.39" x2="993.05" y2="700.79" gradientTransform="matrix(1 0 0 -1 0 767.89)">
		<stop  offset="0" style="stop-color:#FFFFFF"/>
		<stop  offset="0.9988" style="stop-color:#5100FF"/>
	</linearGradient>
	<polygon class="st12" points="761.1,297.1 991.1,67.1 1225,301 1196.5,329.5 991,124 788.5,326.5 	"/>
	
		<linearGradient id="SVGID_7_" gradientUnits="userSpaceOnUse" x1="874" y1="-2483.1104" x2="963" y2="-2394.1104" gradientTransform="matrix(1 0 0 -1 0 -2090.1104)">
		<stop  offset="0" style="stop-color:#FFFFFF"/>
		<stop  offset="1" style="stop-color:#5100FF"/>
	</linearGradient>
	<rect x="874" y="304" class="st13" width="89" height="89"/>
	
		<linearGradient id="SVGID_8_" gradientUnits="userSpaceOnUse" x1="1020" y1="-2483.1104" x2="1092" y2="-2411.1104" gradientTransform="matrix(1 0 0 -1 0 -2090.1104)">
		<stop  offset="0" style="stop-color:#FFFFFF"/>
		<stop  offset="1" style="stop-color:#5100FF"/>
	</linearGradient>
	<rect x="1020" y="321" class="st14" width="72" height="72"/>
	
		<linearGradient id="SVGID_9_" gradientUnits="userSpaceOnUse" x1="1152.25" y1="-2808.3604" x2="1315.75" y2="-2644.8604" gradientTransform="matrix(1 0 0 -1 0 -2090.1104)">
		<stop  offset="0" style="stop-color:#FFFFFF"/>
		<stop  offset="1" style="stop-color:#5100FF"/>
	</linearGradient>
	<rect x="1176" y="531" class="st15" width="116" height="211"/>
	
		<linearGradient id="SVGID_10_" gradientUnits="userSpaceOnUse" x1="848.25" y1="-2783.3604" x2="980.75" y2="-2650.8604" gradientTransform="matrix(1 0 0 -1 0 -2090.1104)">
		<stop  offset="0" style="stop-color:#FFFFFF"/>
		<stop  offset="1" style="stop-color:#5100FF"/>
	</linearGradient>
	<rect x="875" y="534" class="st16" width="79" height="186"/>
	
		<linearGradient id="SVGID_11_" gradientUnits="userSpaceOnUse" x1="942.5" y1="-2782.6104" x2="1073.5" y2="-2651.6104" gradientTransform="matrix(1 0 0 -1 0 -2090.1104)">
		<stop  offset="0" style="stop-color:#FFFFFF"/>
		<stop  offset="1" style="stop-color:#5100FF"/>
	</linearGradient>
	<rect x="970" y="534" class="st17" width="76" height="186"/>
	
		<linearGradient id="SVGID_12_" gradientUnits="userSpaceOnUse" x1="910" y1="-2646.1104" x2="1011" y2="-2545.1104" gradientTransform="matrix(1 0 0 -1 0 -2090.1104)">
		<stop  offset="0" style="stop-color:#FFFFFF"/>
		<stop  offset="1" style="stop-color:#5100FF"/>
	</linearGradient>
	<rect x="868" y="497" class="st18" width="185" height="17"/>
	
		<linearGradient id="SVGID_13_" gradientUnits="userSpaceOnUse" x1="483.2053" y1="-2413.905" x2="551.7947" y2="-2345.3157" gradientTransform="matrix(1 0 0 -1 0 -2090.1104)">
		<stop  offset="0" style="stop-color:#FFFFFF"/>
		<stop  offset="1" style="stop-color:#5100FF"/>
	</linearGradient>
	<circle class="st19" cx="517.5" cy="289.5" r="48.5"/>
	
		<linearGradient id="SVGID_14_" gradientUnits="userSpaceOnUse" x1="517.4" y1="356.79" x2="517.4" y2="643.99" gradientTransform="matrix(1 0 0 -1 0 767.89)">
		<stop  offset="0" style="stop-color:#FFFFFF"/>
		<stop  offset="0.9988" style="stop-color:#5100FF"/>
	</linearGradient>
	<polygon class="st20" points="256.5,382.5 515.1,123.9 778.3,387 754.2,411.1 514.4,171.2 279.8,405.8 	"/>
	
		<linearGradient id="SVGID_15_" gradientUnits="userSpaceOnUse" x1="578.6485" y1="-2627.4568" x2="667.0515" y2="-2539.0637" gradientTransform="matrix(1 0 0 -1 0 -2090.1104)">
		<stop  offset="0" style="stop-color:#FFFFFF"/>
		<stop  offset="1" style="stop-color:#5100FF"/>
	</linearGradient>
	<rect x="596.3" y="431.3" class="st21" width="53.1" height="123.7"/>
	
		<linearGradient id="SVGID_16_" gradientUnits="userSpaceOnUse" x1="520.85" y1="-2578.8601" x2="576.85" y2="-2522.8604" gradientTransform="matrix(1 0 0 -1 0 -2090.1104)">
		<stop  offset="0" style="stop-color:#FFFFFF"/>
		<stop  offset="1" style="stop-color:#5100FF"/>
	</linearGradient>
	<rect x="522.3" y="431.3" class="st22" width="53.1" height="58.9"/>
	
		<linearGradient id="SVGID_17_" gradientUnits="userSpaceOnUse" x1="390.9051" y1="-2579.3552" x2="447.755" y2="-2522.5051" gradientTransform="matrix(1 0 0 -1 0 -2090.1104)">
		<stop  offset="0" style="stop-color:#FFFFFF"/>
		<stop  offset="1" style="stop-color:#5100FF"/>
	</linearGradient>
	<rect x="392" y="431.3" class="st23" width="54.8" height="58.9"/>
</g>
</svg>
